# xmcd
#
# Track frame offsets: 
#        150
#        30298
#        46848
#        83089
#        102991
#        174067
#        203845
#
# Disc length: 3243 seconds
#
# Revision: 1
# Processed by: cddbd v1.5.2PL0 Copyright (c) Steve Scherf et al.
# Submitted via: ExactAudioCopy v1.0b3
#
DISCID=440ca907
DTITLE=Leszek Winder - Trzy Basy
DYEAR=2000
DGENRE=Blues
TTITLE0=Jam 1 -10.V.97r Skrzek Winder Gier
TTITLE1=Jam 2- 2.V.96r Skrzek Winder Gier
TTITLE2=Jam 3 - 10.V.97r Skrzek Winder Gier
TTITLE3=Jam 4 - 15.IX.96r Richter Winder Gier
TTITLE4=Jam 5 - 15.VI.96r Richter Winder Gier
TTITLE5=Jam 6 - 13.IV.96r Kawalec Winder Gier - Bezdomne Psy
TTITLE6=Jam 7 - 13.IV.96r Kawalec Winder Gier - Bezdomne Psy
EXTD=
EXTT0=
EXTT1=
EXTT2=
EXTT3=
EXTT4=
EXTT5=
EXTT6=
PLAYORDER=
